<svg xmlns="http://www.w3.org/2000/svg" xmlns:svg="http://www.w3.org/2000/svg" id="svg9224" width="48" height="48" version="1.1"><defs id="defs9226"><linearGradient id="linearGradient4692" x1="0" x2="1" y1="0" y2="0" gradientTransform="matrix(41.818409,-11.205209,-11.205209,-41.818409,662.27148,85.083984)" gradientUnits="userSpaceOnUse" spreadMethod="pad"><stop id="stop4694" offset="0" stop-color="#bbbdbf" stop-opacity="1"/><stop id="stop4696" offset="1" stop-color="#fff" stop-opacity="1"/></linearGradient><radialGradient id="radialGradient4672" cx="0" cy="0" r="1" fx="0" fy="0" gradientTransform="matrix(52.664001,0,0,-52.664001,708.25586,77.461914)" gradientUnits="userSpaceOnUse" spreadMethod="pad"><stop id="stop4674" offset="0" stop-color="#fff" stop-opacity="1"/><stop id="stop4676" offset="1" stop-color="#d0d2d3" stop-opacity="1"/></radialGradient><linearGradient id="linearGradient4652" x1="0" x2="1" y1="0" y2="0" gradientTransform="matrix(-27.653082,-42.582012,-42.582012,27.653082,697.74219,97.180664)" gradientUnits="userSpaceOnUse" spreadMethod="pad"><stop id="stop4654" offset="0" stop-color="#58595b" stop-opacity="1"/><stop id="stop4656" offset="1" stop-color="#fff" stop-opacity="1"/></linearGradient><linearGradient id="linearGradient4632" x1="0" x2="1" y1="0" y2="0" gradientTransform="matrix(-29.884214,-42.679077,-42.679077,29.884214,699.17578,97.731445)" gradientUnits="userSpaceOnUse" spreadMethod="pad"><stop id="stop4634" offset="0" stop-color="#000" stop-opacity="1"/><stop id="stop4636" offset="1" stop-color="#d0d2d3" stop-opacity="1"/></linearGradient><linearGradient id="linearGradient4606" x1="0" x2="1" y1="0" y2="0" gradientTransform="matrix(-28.139961,-50.765816,-50.765816,28.139961,697.6748,100.60254)" gradientUnits="userSpaceOnUse" spreadMethod="pad"><stop id="stop4608" offset="0" stop-color="#000" stop-opacity="1"/><stop id="stop4610" offset=".32" stop-color="#2e2e5c" stop-opacity="1"/><stop id="stop4612" offset=".49" stop-color="#2e3191" stop-opacity="1"/><stop id="stop4614" offset=".71" stop-color="#00adee" stop-opacity="1"/><stop id="stop4616" offset="1" stop-color="#fff" stop-opacity="1"/></linearGradient><linearGradient id="linearGradient4582" x1="0" x2="1" y1="0" y2="0" gradientTransform="matrix(25.347359,-33.637081,-33.637081,-25.347359,664.38867,102.63086)" gradientUnits="userSpaceOnUse" spreadMethod="pad"><stop id="stop4584" offset="0" stop-color="#2e2e5c" stop-opacity="1"/><stop id="stop4586" offset=".37" stop-color="#2e3191" stop-opacity="1"/><stop id="stop4588" offset=".68" stop-color="#00adee" stop-opacity="1"/><stop id="stop4590" offset="1" stop-color="#fff" stop-opacity="1"/></linearGradient><radialGradient id="radialGradient4558" cx="0" cy="0" r="1" fx="0" fy="0" gradientTransform="matrix(45.633079,0,0,-45.633079,691.74023,64.398437)" gradientUnits="userSpaceOnUse" spreadMethod="pad"><stop id="stop4560" offset="0" stop-color="#00adee" stop-opacity="1"/><stop id="stop4562" offset=".3" stop-color="#2e3191" stop-opacity="1"/><stop id="stop4564" offset=".78" stop-color="#2e2e5c" stop-opacity="1"/><stop id="stop4566" offset="1" stop-color="#000" stop-opacity="1"/></radialGradient><linearGradient id="linearGradient4532" x1="0" x2="1" y1="0" y2="0" gradientTransform="matrix(35.39238,63.849548,63.849548,-35.39238,665.25684,41.9375)" gradientUnits="userSpaceOnUse" spreadMethod="pad"><stop id="stop4534" offset="0" stop-color="#000" stop-opacity="1"/><stop id="stop4536" offset=".32" stop-color="#2e2e5c" stop-opacity="1"/><stop id="stop4538" offset=".49" stop-color="#2e3191" stop-opacity="1"/><stop id="stop4540" offset=".71" stop-color="#00adee" stop-opacity="1"/><stop id="stop4542" offset="1" stop-color="#fff" stop-opacity="1"/></linearGradient></defs><metadata id="metadata9229"/><g id="layer1"><g id="g4520" transform="matrix(0.62292806,0,0,-0.62292806,-401.43502,66.431596)"><g id="g4522"><g id="g4528"><g id="g4530"><path id="path4544" fill="url(#linearGradient4532)" stroke="none" d="m 654.72,76.544 c 0,-2.856 0.377,-5.65 1.166,-8.397 l 0,0 c 1.847,-6.418 5.79,-12.027 9.917,-17.179 l 0,0 c 5.551,-6.924 11.638,-13.497 17.31,-20.344 l 0,0 c 0.813,-1.009 1.637,-1.009 2.452,0 l 0,0 c 5.675,6.847 11.759,13.42 17.306,20.344 l 0,0 c 4.13,5.152 8.071,10.761 9.917,17.184 l 0,0 c 0.788,2.742 1.169,5.536 1.169,8.392 l 0,0 c 0,16.356 -13.266,29.617 -29.62,29.617 l 0,0 c -16.353,0 -29.617,-13.261 -29.617,-29.617"/></g></g></g></g><g id="g4546" transform="matrix(0.62292806,0,0,-0.62292806,-401.43502,66.431596)"><g id="g4548"><g id="g4554"><g id="g4556"><path id="path4568" fill="url(#radialGradient4558)" stroke="none" d="m 655.849,76.679 c 0,-15.729 11.744,-25.426 28.488,-45.643 l 0,0 c 16.747,20.217 28.491,29.914 28.491,45.643 l 0,0 c 0,15.736 -12.758,28.498 -28.491,28.498 l 0,0 c -15.732,0 -28.488,-12.762 -28.488,-28.498"/></g></g></g></g><g id="g4570" transform="matrix(0.62292806,0,0,-0.62292806,-401.43502,66.431596)"><g id="g4572"><g id="g4578"><g id="g4580"><path id="path4592" fill="url(#linearGradient4582)" stroke="none" d="m 655.849,76.679 c 0,-8.043 3.075,-14.52 8.324,-21.625 l 0,0 c 1.946,16.898 16.307,30.029 33.727,30.029 l 0,0 c 5.167,0 10.07,-1.158 14.455,-3.229 l 0,0 c -2.432,13.264 -14.053,23.323 -28.018,23.323 l 0,0 c -15.732,0 -28.488,-12.762 -28.488,-28.498"/></g></g></g></g><g id="g4594" transform="matrix(0.62292806,0,0,-0.62292806,-401.43502,66.431596)"><g id="g4596"><g id="g4602"><g id="g4604"><path id="path4618" fill="url(#linearGradient4606)" stroke="none" d="m 659.125,76.544 c 0,-13.887 11.326,-25.215 25.212,-25.215 l 0,0 c 13.889,0 25.216,11.328 25.216,25.215 l 0,0 c 0,13.889 -11.327,25.214 -25.216,25.214 l 0,0 c -13.886,0 -25.212,-11.325 -25.212,-25.214"/></g></g></g></g><g id="g4620" transform="matrix(0.62292806,0,0,-0.62292806,-401.43502,66.431596)"><g id="g4622"><g id="g4628"><g id="g4630"><path id="path4638" fill="url(#linearGradient4632)" stroke="none" d="m 659.852,76.544 c 0,-13.486 11,-24.486 24.485,-24.486 l 0,0 c 13.486,0 24.489,11 24.489,24.486 l 0,0 c 0,13.482 -11.003,24.48 -24.489,24.48 l 0,0 c -13.485,0 -24.485,-10.998 -24.485,-24.48"/></g></g></g></g><g id="g4640" transform="matrix(0.62292806,0,0,-0.62292806,-401.43502,66.431596)"><g id="g4642"><g id="g4648"><g id="g4650"><path id="path4658" fill="url(#linearGradient4652)" stroke="none" d="m 660.102,76.544 c 0,-13.356 10.889,-24.236 24.235,-24.236 l 0,0 c 13.35,0 24.237,10.88 24.237,24.236 l 0,0 c 0,13.345 -10.887,24.233 -24.237,24.233 l 0,0 c -13.346,0 -24.235,-10.888 -24.235,-24.233"/></g></g></g></g><g id="g4660" transform="matrix(0.62292806,0,0,-0.62292806,-401.43502,66.431596)"><g id="g4662"><g id="g4668"><g id="g4670"><path id="path4678" fill="url(#radialGradient4672)" stroke="none" d="m 661.339,76.544 c 0,-12.67 10.33,-23.002 22.996,-23.002 l 0,0 c 12.669,0 23.002,10.332 23.002,23.002 l 0,0 c 0,12.666 -10.333,22.996 -23.002,22.996 l 0,0 c -12.666,0 -22.996,-10.33 -22.996,-22.996"/></g></g></g></g><g id="g4680" transform="matrix(0.62292806,0,0,-0.62292806,-401.43502,66.431596)"><g id="g4682"><g id="g4688"><g id="g4690"><path id="path4698" fill="url(#linearGradient4692)" stroke="none" d="m 661.339,76.544 c 0,-5.086 1.656,-9.783 4.451,-13.593 l 0,0 c 4.976,13.041 17.604,22.308 32.395,22.308 l 0,0 c 2.674,0 5.277,-0.303 7.782,-0.875 l 0,0 c -3.209,8.842 -11.681,15.16 -21.63,15.16 l 0,0 c -12.7,0 -22.998,-10.299 -22.998,-23"/></g></g></g></g></g></svg>