<svg xmlns="http://www.w3.org/2000/svg" xmlns:svg="http://www.w3.org/2000/svg" id="svg3031" width="48" height="48" version="1.1"><metadata id="metadata3036"/><g id="layer1"><g id="g56121" transform="matrix(0.66071343,0,0,0.66071343,393.92259,411.23677)"><g id="g54979" fill="green" transform="matrix(1.0033,0,0,1.0033,-531.82,-1166)"><rect id="rect54981" width="71.763" height="71.763" x="-63.745" y="542.23" fill="green" rx="4.985" ry="4.985"/></g><path id="path3851" fill="#fff" d="m -565.59,-620.29 v 0.86588 h 0.23242 v 5.013 h -0.47852 v 3.9056 h -2.9759 v 5.7969 c -3.4571,0.42078 -8.4797,1.1576 -11.585,3.2448 l -0.98437,22.107 v 13.813 h -0.82487 v 5.5827 h 1.7226 v 5.5644 c 0,0.51235 0.41279,0.92513 0.92513,0.92513 h 3.2448 c 0.51234,0 0.92512,-0.41278 0.92512,-0.92513 v -5.5644 h 8.4674 14.296 8.4674 v 5.5644 c 0,0.51235 0.41278,0.92513 0.92513,0.92513 h 3.2448 c 0.51234,0 0.92513,-0.41278 0.92513,-0.92513 v -5.5644 h 1.7226 v -5.5827 h -0.82031 v -13.813 l -0.98893,-22.107 c -3.1049,-2.0872 -8.1229,-2.824 -11.58,-3.2448 v -5.7969 h -2.9804 v -3.9056 h -0.47852 v -5.013 h 0.23242 V -620.29 h -0.86588 v 0.86588 h 0.22787 v 5.013 h -0.4694 v 3.9056 h -4.7077 -4.7122 v -3.9056 h -0.4694 v -5.013 h 0.22331 V -620.29 h -0.86132 z m -4.0058,16.894 h 5.0768 9.5065 5.0859 c 0.33024,0 0.58789,0.27133 0.58789,0.60156 v 2.9987 c 0,0.33022 -0.25765,0.58788 -0.58789,0.58788 h -5.0859 -9.5065 -5.0768 c -0.33024,0 -0.60156,-0.25766 -0.60156,-0.58788 v -2.9987 c 0,-0.33023 0.27132,-0.60156 0.60156,-0.60156 z m -5.9974,3.2493 h 2.1374 v 1.1894 h -2.1374 v -1.1894 z m 29.504,0 h 2.1374 v 1.1894 h -2.1374 v -1.1894 z m -33.077,2.4655 h 17.833 c 0.54634,0 0.98437,0.43802 0.98437,0.98437 v 15.121 c 0,0.54635 -0.43803,0.98437 -0.98437,0.98437 h -17.833 c -0.54634,0 -0.98892,-0.43802 -0.98892,-0.98437 v -15.121 c 0,-0.54635 0.44258,-0.98437 0.98892,-0.98437 z m 20.954,0 h 17.833 c 0.54634,0 0.98892,0.43802 0.98892,0.98437 v 15.121 c 0,0.54635 -0.44258,0.98437 -0.98892,0.98437 h -17.833 c -0.54634,0 -0.98437,-0.43802 -0.98437,-0.98437 v -15.121 c 0,-0.54635 0.43803,-0.98437 0.98437,-0.98437 z m -18.202,24.655 h 33.282 v 4.7624 h -33.282 v -4.7624 z m 0.72461,0.28711 c -0.19316,0 -0.34635,0.15775 -0.34635,0.35091 v 3.4863 c 0,0.19316 0.15319,0.35091 0.34635,0.35091 h 5.1588 c 0.19317,0 0.34636,-0.15775 0.34636,-0.35091 v -3.4863 c 0,-0.19316 -0.15319,-0.35091 -0.34636,-0.35091 h -5.1588 z m 26.674,0 c -0.19317,0 -0.34636,0.15775 -0.34636,0.35091 v 3.4863 c 0,0.19316 0.15319,0.35091 0.34636,0.35091 h 5.1588 c 0.19316,0 0.34635,-0.15775 0.34635,-0.35091 v -3.4863 c 0,-0.19316 -0.15319,-0.35091 -0.34635,-0.35091 h -5.1588 z m -24.094,0.30989 c 0.98433,0 1.7819,0.79757 1.7819,1.7819 0,0.98433 -0.79756,1.7864 -1.7819,1.7864 -0.98433,0 -1.7819,-0.80212 -1.7819,-1.7864 v -0.041 c 0.0237,-0.96706 0.81455,-1.7409 1.7819,-1.7409 z m 26.674,0 c 0.96735,0 1.7582,0.77382 1.7819,1.7409 v 0.041 c 0,0.98433 -0.79757,1.7864 -1.7819,1.7864 -0.98433,0 -1.7819,-0.80212 -1.7819,-1.7864 0,-0.98433 0.79756,-1.7819 1.7819,-1.7819 z m -32.06,0.20964 h 1.9186 v 1.9596 h -1.9186 v -1.9596 z m 35.528,0 h 1.9186 v 1.9596 h -1.9186 v -1.9596 z m -35.528,2.0918 h 1.9186 v 1.2214 h -1.9186 v -1.2214 z m 35.528,0 h 1.9186 v 1.2214 h -1.9186 v -1.2214 z"/></g></g></svg>