<svg xmlns="http://www.w3.org/2000/svg" xmlns:svg="http://www.w3.org/2000/svg" id="svg8420" width="48" height="48" version="1.1"><defs id="defs8422"><linearGradient id="linearGradient5120" x1="0" x2="1" y1="0" y2="0" gradientTransform="matrix(41.807964,-11.202411,-11.202411,-41.807964,349.89307,86.900391)" gradientUnits="userSpaceOnUse" spreadMethod="pad"><stop id="stop5122" offset="0" stop-color="#bbbdbf" stop-opacity="1"/><stop id="stop5124" offset="1" stop-color="#fff" stop-opacity="1"/></linearGradient><radialGradient id="radialGradient5100" cx="0" cy="0" r="1" fx="0" fy="0" gradientTransform="matrix(52.670879,0,0,-52.670879,395.87695,79.279297)" gradientUnits="userSpaceOnUse" spreadMethod="pad"><stop id="stop5102" offset="0" stop-color="#fff" stop-opacity="1"/><stop id="stop5104" offset="1" stop-color="#d0d2d3" stop-opacity="1"/></radialGradient><linearGradient id="linearGradient5080" x1="0" x2="1" y1="0" y2="0" gradientTransform="matrix(-27.653175,-42.582153,-42.582153,27.653175,385.35791,98.999023)" gradientUnits="userSpaceOnUse" spreadMethod="pad"><stop id="stop5082" offset="0" stop-color="#58595b" stop-opacity="1"/><stop id="stop5084" offset="1" stop-color="#fff" stop-opacity="1"/></linearGradient><linearGradient id="linearGradient5060" x1="0" x2="1" y1="0" y2="0" gradientTransform="matrix(-29.884907,-42.680069,-42.680069,29.884907,386.79199,99.550781)" gradientUnits="userSpaceOnUse" spreadMethod="pad"><stop id="stop5062" offset="0" stop-color="#000" stop-opacity="1"/><stop id="stop5064" offset="1" stop-color="#d0d2d3" stop-opacity="1"/></linearGradient><linearGradient id="linearGradient5036" x1="0" x2="1" y1="0" y2="0" gradientTransform="matrix(-27.977228,-50.472233,-50.472233,27.977228,385.21631,102.28223)" gradientUnits="userSpaceOnUse" spreadMethod="pad"><stop id="stop5038" offset="0" stop-color="#542827" stop-opacity="1"/><stop id="stop5040" offset=".32" stop-color="#aa2930" stop-opacity="1"/><stop id="stop5042" offset=".49" stop-color="#ec1c24" stop-opacity="1"/><stop id="stop5044" offset="1" stop-color="#fff" stop-opacity="1"/></linearGradient><linearGradient id="linearGradient5014" x1="0" x2="1" y1="0" y2="0" gradientTransform="matrix(25.255419,-33.515072,-33.515072,-25.255419,352.08887,104.33594)" gradientUnits="userSpaceOnUse" spreadMethod="pad"><stop id="stop5016" offset="0" stop-color="#aa2930" stop-opacity="1"/><stop id="stop5018" offset=".37" stop-color="#ec1c24" stop-opacity="1"/><stop id="stop5020" offset="1" stop-color="#fff" stop-opacity="1"/></linearGradient><radialGradient id="radialGradient4990" cx="0" cy="0" r="1" fx="0" fy="0" gradientTransform="matrix(45.316353,0,0,-45.316353,378.79199,66.214844)" gradientUnits="userSpaceOnUse" spreadMethod="pad"><stop id="stop4992" offset="0" stop-color="#ec1c24" stop-opacity="1"/><stop id="stop4994" offset=".61" stop-color="#aa2930" stop-opacity="1"/><stop id="stop4996" offset=".61" stop-color="#aa2930" stop-opacity="1"/><stop id="stop4998" offset="1" stop-color="#8c2b30" stop-opacity="1"/></radialGradient><linearGradient id="linearGradient4966" x1="0" x2="1" y1="0" y2="0" gradientTransform="matrix(35.392109,63.84906,63.84906,-35.392109,352.87158,43.753906)" gradientUnits="userSpaceOnUse" spreadMethod="pad"><stop id="stop4968" offset="0" stop-color="#542827" stop-opacity="1"/><stop id="stop4970" offset=".32" stop-color="#aa2930" stop-opacity="1"/><stop id="stop4972" offset=".49" stop-color="#ec1c24" stop-opacity="1"/><stop id="stop4974" offset="1" stop-color="#fff" stop-opacity="1"/></linearGradient><clipPath id="clipPath4918" clipPathUnits="userSpaceOnUse"><path id="path4920" d="m 84.108,12.924 662.966,0 0,560.972 -662.966,0 0,-560.972 z"/></clipPath><clipPath id="clipPath4926" clipPathUnits="userSpaceOnUse"><path id="path4928" d="m 337.152,33.5195 69.605,0 0,-8.1601 -69.605,0 0,8.1601 z"/></clipPath><radialGradient id="radialGradient4934" cx="0" cy="0" r="1" fx="0" fy="0" gradientTransform="matrix(-34.806358,0,0,4.0805755,371.9541,29.439453)" gradientUnits="userSpaceOnUse" spreadMethod="pad"><stop id="stop4936" offset="0" stop-color="#000" stop-opacity="1"/><stop id="stop4938" offset="1" stop-color="#fff" stop-opacity="1"/></radialGradient></defs><metadata id="metadata8425"/><g id="layer1"><g id="g4954" transform="matrix(0.6113894,0,0,-0.6113894,-202.84103,66.613186)"><g id="g4956"><g id="g4962"><g id="g4964"><path id="path4976" fill="url(#linearGradient4966)" stroke="none" d="m 342.335,78.359 c 0,-2.854 0.385,-5.651 1.17,-8.393 l 0,0 c 1.847,-6.42 5.789,-12.031 9.919,-17.178 l 0,0 c 5.547,-6.928 11.631,-13.5 17.305,-20.347 l 0,0 c 0.817,-1.012 1.632,-1.012 2.451,0 l 0,0 c 5.676,6.847 11.761,13.419 17.309,20.347 l 0,0 c 4.129,5.147 8.068,10.758 9.915,17.178 l 0,0 c 0.79,2.742 1.172,5.539 1.172,8.393 l 0,0 c 0,16.355 -13.269,29.617 -29.623,29.617 l 0,0 c -16.353,0 -29.618,-13.262 -29.618,-29.617"/></g></g></g></g><g id="g4978" transform="matrix(0.6113894,0,0,-0.6113894,-202.84103,66.613186)"><g id="g4980"><g id="g4986"><g id="g4988"><path id="path5000" fill="url(#radialGradient4990)" stroke="none" d="m 343.462,78.497 c 0,-15.73 11.745,-25.426 28.491,-45.644 l 0,0 c 16.749,20.218 28.492,29.914 28.492,45.644 l 0,0 c 0,15.737 -12.758,28.494 -28.492,28.494 l 0,0 c -15.731,0 -28.491,-12.757 -28.491,-28.494"/></g></g></g></g><g id="g5002" transform="matrix(0.6113894,0,0,-0.6113894,-202.84103,66.613186)"><g id="g5004"><g id="g5010"><g id="g5012"><path id="path5022" fill="url(#linearGradient5014)" stroke="none" d="m 343.462,78.497 c 0,-8.047 3.079,-14.521 8.329,-21.629 l 0,0 c 1.943,16.904 16.307,30.033 33.727,30.033 l 0,0 c 5.167,0 10.071,-1.158 14.455,-3.23 l 0,0 c -2.43,13.264 -14.051,23.32 -28.02,23.32 l 0,0 c -15.731,0 -28.491,-12.757 -28.491,-28.494"/></g></g></g></g><g id="g5024" transform="matrix(0.6113894,0,0,-0.6113894,-202.84103,66.613186)"><g id="g5026"><g id="g5032"><g id="g5034"><path id="path5046" fill="url(#linearGradient5036)" stroke="none" d="m 346.738,78.359 c 0,-13.888 11.33,-25.213 25.219,-25.213 l 0,0 c 13.887,0 25.215,11.325 25.215,25.213 l 0,0 c 0,13.886 -11.328,25.217 -25.215,25.217 l 0,0 c -13.889,0 -25.219,-11.331 -25.219,-25.217"/></g></g></g></g><g id="g5048" transform="matrix(0.6113894,0,0,-0.6113894,-202.84103,66.613186)"><g id="g5050"><g id="g5056"><g id="g5058"><path id="path5066" fill="url(#linearGradient5060)" stroke="none" d="m 347.471,78.359 c 0,-13.481 10.997,-24.483 24.486,-24.483 l 0,0 c 13.484,0 24.482,11.002 24.482,24.483 l 0,0 c 0,13.484 -10.998,24.486 -24.482,24.486 l 0,0 c -13.489,0 -24.486,-11.002 -24.486,-24.486"/></g></g></g></g><g id="g5068" transform="matrix(0.6113894,0,0,-0.6113894,-202.84103,66.613186)"><g id="g5070"><g id="g5076"><g id="g5078"><path id="path5086" fill="url(#linearGradient5080)" stroke="none" d="m 347.718,78.359 c 0,-13.348 10.889,-24.231 24.239,-24.231 l 0,0 c 13.346,0 24.234,10.883 24.234,24.231 l 0,0 c 0,13.345 -10.888,24.237 -24.234,24.237 l 0,0 c -13.35,0 -24.239,-10.892 -24.239,-24.237"/></g></g></g></g><g id="g5088" transform="matrix(0.6113894,0,0,-0.6113894,-202.84103,66.613186)"><g id="g5090"><g id="g5096"><g id="g5098"><path id="path5106" fill="url(#radialGradient5100)" stroke="none" d="m 348.955,78.359 c 0,-12.664 10.332,-23.001 23.002,-23.001 l 0,0 c 12.664,0 22.997,10.337 22.997,23.001 l 0,0 c 0,12.665 -10.333,23.004 -22.997,23.004 l 0,0 c -12.67,0 -23.002,-10.339 -23.002,-23.004"/></g></g></g></g><g id="g5108" transform="matrix(0.6113894,0,0,-0.6113894,-202.84103,66.613186)"><g id="g5110"><g id="g5116"><g id="g5118"><path id="path5126" fill="url(#linearGradient5120)" stroke="none" d="m 348.955,78.359 c 0,-5.085 1.657,-9.782 4.454,-13.59 l 0,0 c 4.975,13.039 17.601,22.31 32.389,22.31 l 0,0 c 2.677,0 5.281,-0.306 7.783,-0.881 l 0,0 c -3.205,8.84 -11.676,15.165 -21.628,15.165 l 0,0 c -12.698,0 -22.998,-10.304 -22.998,-23.004"/></g></g></g></g></g></svg>