<svg xmlns="http://www.w3.org/2000/svg" xmlns:svg="http://www.w3.org/2000/svg" id="svg8420" width="48" height="48" version="1.1"><defs id="defs8422"><linearGradient id="linearGradient4906" x1="0" x2="1" y1="0" y2="0" gradientTransform="matrix(41.814026,-11.204035,-11.204035,-41.814026,558.14551,86.901367)" gradientUnits="userSpaceOnUse" spreadMethod="pad"><stop id="stop4908" offset="0" stop-color="#bbbdbf" stop-opacity="1"/><stop id="stop4910" offset="1" stop-color="#fff" stop-opacity="1"/></linearGradient><radialGradient id="radialGradient4886" cx="0" cy="0" r="1" fx="0" fy="0" gradientTransform="matrix(52.664253,0,0,-52.664253,604.12891,79.27832)" gradientUnits="userSpaceOnUse" spreadMethod="pad"><stop id="stop4888" offset="0" stop-color="#fff" stop-opacity="1"/><stop id="stop4890" offset="1" stop-color="#d0d2d3" stop-opacity="1"/></radialGradient><linearGradient id="linearGradient4866" x1="0" x2="1" y1="0" y2="0" gradientTransform="matrix(-27.655456,-42.585667,-42.585667,27.655456,593.61621,98.999023)" gradientUnits="userSpaceOnUse" spreadMethod="pad"><stop id="stop4868" offset="0" stop-color="#58595b" stop-opacity="1"/><stop id="stop4870" offset="1" stop-color="#fff" stop-opacity="1"/></linearGradient><linearGradient id="linearGradient4846" x1="0" x2="1" y1="0" y2="0" gradientTransform="matrix(-29.885855,-42.681419,-42.681419,29.885855,595.04785,99.547852)" gradientUnits="userSpaceOnUse" spreadMethod="pad"><stop id="stop4848" offset="0" stop-color="#000" stop-opacity="1"/><stop id="stop4850" offset="1" stop-color="#d0d2d3" stop-opacity="1"/></linearGradient><linearGradient id="linearGradient4822" x1="0" x2="1" y1="0" y2="0" gradientTransform="matrix(-28.011278,-50.533665,-50.533665,28.011278,593.56055,102.44434)" gradientUnits="userSpaceOnUse" spreadMethod="pad"><stop id="stop4824" offset="0" stop-color="#5d292a" stop-opacity="1"/><stop id="stop4826" offset=".32" stop-color="#9d2c41" stop-opacity="1"/><stop id="stop4828" offset=".49" stop-color="#eb008b" stop-opacity="1"/><stop id="stop4830" offset="1" stop-color="#fff" stop-opacity="1"/></linearGradient><linearGradient id="linearGradient4800" x1="0" x2="1" y1="0" y2="0" gradientTransform="matrix(25.348558,-33.638676,-33.638676,-25.348558,560.25879,104.44922)" gradientUnits="userSpaceOnUse" spreadMethod="pad"><stop id="stop4802" offset="0" stop-color="#9d2c41" stop-opacity="1"/><stop id="stop4804" offset=".65" stop-color="#eb008b" stop-opacity="1"/><stop id="stop4806" offset="1" stop-color="#fff" stop-opacity="1"/></linearGradient><radialGradient id="radialGradient4776" cx="0" cy="0" r="1" fx="0" fy="0" gradientTransform="matrix(45.319572,0,0,-45.319572,587.04687,66.214844)" gradientUnits="userSpaceOnUse" spreadMethod="pad"><stop id="stop4778" offset="0" stop-color="#eb008b" stop-opacity="1"/><stop id="stop4780" offset=".73" stop-color="#9d2c41" stop-opacity="1"/><stop id="stop4782" offset=".73" stop-color="#9d2c41" stop-opacity="1"/><stop id="stop4784" offset="1" stop-color="#732d2d" stop-opacity="1"/></radialGradient><linearGradient id="linearGradient4752" x1="0" x2="1" y1="0" y2="0" gradientTransform="matrix(35.391155,63.84734,63.84734,-35.391155,561.12988,43.754883)" gradientUnits="userSpaceOnUse" spreadMethod="pad"><stop id="stop4754" offset="0" stop-color="#5d292a" stop-opacity="1"/><stop id="stop4756" offset=".32" stop-color="#9d2c41" stop-opacity="1"/><stop id="stop4758" offset=".49" stop-color="#eb008b" stop-opacity="1"/><stop id="stop4760" offset="1" stop-color="#fff" stop-opacity="1"/></linearGradient><clipPath id="clipPath4704" clipPathUnits="userSpaceOnUse"><path id="path4706" d="m 84.108,12.924 662.966,0 0,560.972 -662.966,0 0,-560.972 z"/></clipPath><clipPath id="clipPath4712" clipPathUnits="userSpaceOnUse"><path id="path4714" d="m 545.408,33.5195 69.605,0 0,-8.1601 -69.605,0 0,8.1601 z"/></clipPath><radialGradient id="radialGradient4720" cx="0" cy="0" r="1" fx="0" fy="0" gradientTransform="matrix(-34.806358,0,0,4.0805755,580.20996,29.439453)" gradientUnits="userSpaceOnUse" spreadMethod="pad"><stop id="stop4722" offset="0" stop-color="#000" stop-opacity="1"/><stop id="stop4724" offset="1" stop-color="#fff" stop-opacity="1"/></radialGradient></defs><metadata id="metadata8425"/><g id="layer1"><g id="g4740" transform="matrix(0.62073187,0,0,-0.62073187,-335.36947,67.572407)"><g id="g4742"><g id="g4748"><g id="g4750"><path id="path4762" fill="url(#linearGradient4752)" stroke="none" d="m 550.592,78.359 c 0,-2.854 0.382,-5.651 1.17,-8.397 l 0,0 c 1.845,-6.416 5.783,-12.027 9.913,-17.178 l 0,0 c 5.55,-6.924 11.636,-13.496 17.312,-20.343 l 0,0 c 0.815,-1.012 1.634,-1.012 2.451,0 l 0,0 c 5.67,6.847 11.756,13.419 17.303,20.343 l 0,0 c 4.133,5.151 8.074,10.762 9.917,17.182 l 0,0 c 0.79,2.742 1.17,5.539 1.17,8.393 l 0,0 c 0,16.355 -13.264,29.617 -29.619,29.617 l 0,0 c -16.35,0 -29.617,-13.262 -29.617,-29.617"/></g></g></g></g><g id="g4764" transform="matrix(0.62073187,0,0,-0.62073187,-335.36947,67.572407)"><g id="g4766"><g id="g4772"><g id="g4774"><path id="path4786" fill="url(#radialGradient4776)" stroke="none" d="m 551.716,78.497 c 0,-15.73 11.744,-25.426 28.493,-45.644 l 0,0 c 16.751,20.218 28.494,29.914 28.494,45.644 l 0,0 c 0,15.737 -12.759,28.494 -28.494,28.494 l 0,0 c -15.73,0 -28.493,-12.757 -28.493,-28.494"/></g></g></g></g><g id="g4788" transform="matrix(0.62073187,0,0,-0.62073187,-335.36947,67.572407)"><g id="g4790"><g id="g4796"><g id="g4798"><path id="path4808" fill="url(#linearGradient4800)" stroke="none" d="m 551.721,78.497 c 0,-8.047 3.074,-14.521 8.323,-21.629 l 0,0 c 1.947,16.901 16.308,30.033 33.727,30.033 l 0,0 c 5.172,0 10.07,-1.158 14.461,-3.23 l 0,0 c -2.434,13.264 -14.057,23.32 -28.023,23.32 l 0,0 c -15.73,0 -28.488,-12.757 -28.488,-28.494"/></g></g></g></g><g id="g4810" transform="matrix(0.62073187,0,0,-0.62073187,-335.36947,67.572407)"><g id="g4812"><g id="g4818"><g id="g4820"><path id="path4832" fill="url(#linearGradient4822)" stroke="none" d="m 554.995,78.359 c 0,-13.888 11.327,-25.213 25.214,-25.213 l 0,0 c 13.888,0 25.216,11.325 25.216,25.213 l 0,0 c 0,13.886 -11.328,25.217 -25.216,25.217 l 0,0 c -13.887,0 -25.214,-11.331 -25.214,-25.217"/></g></g></g></g><g id="g4834" transform="matrix(0.62073187,0,0,-0.62073187,-335.36947,67.572407)"><g id="g4836"><g id="g4842"><g id="g4844"><path id="path4852" fill="url(#linearGradient4846)" stroke="none" d="m 555.722,78.359 c 0,-13.487 11.003,-24.487 24.487,-24.487 l 0,0 c 13.488,0 24.487,11 24.487,24.487 l 0,0 c 0,13.484 -10.999,24.484 -24.487,24.484 l 0,0 c -13.484,0 -24.487,-11 -24.487,-24.484"/></g></g></g></g><g id="g4854" transform="matrix(0.62073187,0,0,-0.62073187,-335.36947,67.572407)"><g id="g4856"><g id="g4862"><g id="g4864"><path id="path4872" fill="url(#linearGradient4866)" stroke="none" d="m 555.976,78.359 c 0,-13.352 10.886,-24.237 24.233,-24.237 l 0,0 c 13.35,0 24.235,10.885 24.235,24.237 l 0,0 c 0,13.345 -10.885,24.234 -24.235,24.234 l 0,0 c -13.347,0 -24.233,-10.889 -24.233,-24.234"/></g></g></g></g><g id="g4874" transform="matrix(0.62073187,0,0,-0.62073187,-335.36947,67.572407)"><g id="g4876"><g id="g4882"><g id="g4884"><path id="path4892" fill="url(#radialGradient4886)" stroke="none" d="m 557.212,78.359 c 0,-12.666 10.328,-23.001 22.997,-23.001 l 0,0 c 12.67,0 23.002,10.335 23.002,23.001 l 0,0 c 0,12.665 -10.332,22.997 -23.002,22.997 l 0,0 c -12.669,0 -22.997,-10.332 -22.997,-22.997"/></g></g></g></g><g id="g4894" transform="matrix(0.62073187,0,0,-0.62073187,-335.36947,67.572407)"><g id="g4896"><g id="g4902"><g id="g4904"><path id="path4912" fill="url(#linearGradient4906)" stroke="none" d="m 557.212,78.359 c 0,-5.085 1.654,-9.782 4.449,-13.59 l 0,0 c 4.975,13.039 17.607,22.306 32.395,22.306 l 0,0 c 2.673,0 5.275,-0.302 7.781,-0.877 l 0,0 c -3.204,8.844 -11.68,15.165 -21.628,15.165 l 0,0 c -12.701,0 -22.997,-10.304 -22.997,-23.004"/></g></g></g></g></g></svg>